<mxfile modified="2023-03-07T15:27:31.916Z" host="app.diagrams.net" agent="5.0 (Windows)" etag="qRMAgMhRxtbgClovPa7z" version="21.0.2" type="github">
  <diagram id="Ht1M8jgEwFfnCIfOTk4-" name="Page-1">
    <mxGraphModel dx="1658" dy="853" grid="1" gridSize="10" guides="1" tooltips="1" connect="1" arrows="1" fold="1" page="1" pageScale="1" pageWidth="827" pageHeight="1169" math="0" shadow="0">
      <root>
        <mxCell id="0" />
        <mxCell id="1" parent="0" />
        <mxCell id="UEzPUAAOIrF-is8g5C7q-2" value="AWS Cloud" style="points=[[0,0],[0.25,0],[0.5,0],[0.75,0],[1,0],[1,0.25],[1,0.5],[1,0.75],[1,1],[0.75,1],[0.5,1],[0.25,1],[0,1],[0,0.75],[0,0.5],[0,0.25]];outlineConnect=0;gradientColor=none;html=1;whiteSpace=wrap;fontSize=12;fontStyle=0;shape=mxgraph.aws4.group;grIcon=mxgraph.aws4.group_aws_cloud_alt;strokeColor=#232F3E;fillColor=none;verticalAlign=top;align=left;spacingLeft=30;fontColor=#232F3E;dashed=0;container=1;pointerEvents=0;collapsible=0;recursiveResize=0;" parent="1" vertex="1">
          <mxGeometry x="435.5" y="175" width="434.5" height="385" as="geometry" />
        </mxCell>
        <mxCell id="opJTwa3cTm8ZETA3z5tz-24" value="EC2 instance contents" style="points=[[0,0],[0.25,0],[0.5,0],[0.75,0],[1,0],[1,0.25],[1,0.5],[1,0.75],[1,1],[0.75,1],[0.5,1],[0.25,1],[0,1],[0,0.75],[0,0.5],[0,0.25]];outlineConnect=0;gradientColor=none;html=1;whiteSpace=wrap;fontSize=12;fontStyle=0;container=1;pointerEvents=0;collapsible=0;recursiveResize=0;shape=mxgraph.aws4.group;grIcon=mxgraph.aws4.group_ec2_instance_contents;strokeColor=#D86613;fillColor=none;verticalAlign=top;align=left;spacingLeft=30;fontColor=#D86613;dashed=0;" vertex="1" parent="UEzPUAAOIrF-is8g5C7q-2">
          <mxGeometry x="64.5" y="105" width="165.5" height="155" as="geometry" />
        </mxCell>
        <mxCell id="opJTwa3cTm8ZETA3z5tz-27" value="&lt;div&gt;Node.js&lt;/div&gt;&lt;div&gt;(Express)&lt;br&gt;&lt;/div&gt;" style="outlineConnect=0;dashed=0;verticalLabelPosition=bottom;verticalAlign=top;align=center;html=1;shape=mxgraph.aws3.android;fillColor=#8CC64F;gradientColor=none;" vertex="1" parent="opJTwa3cTm8ZETA3z5tz-24">
          <mxGeometry x="55.629999999999995" y="46.5" width="54.25" height="62" as="geometry" />
        </mxCell>
        <mxCell id="opJTwa3cTm8ZETA3z5tz-32" value="" style="edgeStyle=orthogonalEdgeStyle;html=1;endArrow=block;elbow=vertical;startArrow=block;startFill=1;endFill=1;strokeColor=#545B64;rounded=0;" edge="1" parent="opJTwa3cTm8ZETA3z5tz-24" target="opJTwa3cTm8ZETA3z5tz-31">
          <mxGeometry width="100" relative="1" as="geometry">
            <mxPoint x="109.88" y="77.15999999999997" as="sourcePoint" />
            <mxPoint x="209.88" y="77.15999999999997" as="targetPoint" />
            <Array as="points" />
          </mxGeometry>
        </mxCell>
        <mxCell id="opJTwa3cTm8ZETA3z5tz-34" value="" style="edgeStyle=orthogonalEdgeStyle;html=1;endArrow=block;elbow=vertical;startArrow=block;startFill=1;endFill=1;strokeColor=#545B64;rounded=0;" edge="1" parent="opJTwa3cTm8ZETA3z5tz-24" target="opJTwa3cTm8ZETA3z5tz-33">
          <mxGeometry width="100" relative="1" as="geometry">
            <mxPoint x="110" y="90" as="sourcePoint" />
            <mxPoint x="210" y="90" as="targetPoint" />
          </mxGeometry>
        </mxCell>
        <mxCell id="opJTwa3cTm8ZETA3z5tz-31" value="Amazon S3" style="sketch=0;outlineConnect=0;fontColor=#232F3E;gradientColor=none;strokeColor=#ffffff;fillColor=#232F3E;dashed=0;verticalLabelPosition=middle;verticalAlign=bottom;align=center;html=1;whiteSpace=wrap;fontSize=10;fontStyle=1;spacing=3;shape=mxgraph.aws4.productIcon;prIcon=mxgraph.aws4.s3;" vertex="1" parent="UEzPUAAOIrF-is8g5C7q-2">
          <mxGeometry x="311.5" y="45" width="80" height="100" as="geometry" />
        </mxCell>
        <mxCell id="opJTwa3cTm8ZETA3z5tz-33" value="Amazon RDS" style="sketch=0;outlineConnect=0;fontColor=#232F3E;gradientColor=none;strokeColor=#ffffff;fillColor=#232F3E;dashed=0;verticalLabelPosition=middle;verticalAlign=bottom;align=center;html=1;whiteSpace=wrap;fontSize=10;fontStyle=1;spacing=3;shape=mxgraph.aws4.productIcon;prIcon=mxgraph.aws4.rds;" vertex="1" parent="UEzPUAAOIrF-is8g5C7q-2">
          <mxGeometry x="311.5" y="245" width="80" height="100" as="geometry" />
        </mxCell>
        <mxCell id="opJTwa3cTm8ZETA3z5tz-37" value="1" style="rounded=1;whiteSpace=wrap;html=1;fillColor=#007CBD;strokeColor=none;fontColor=#FFFFFF;fontStyle=1;fontSize=22;labelBackgroundColor=none;" vertex="1" parent="UEzPUAAOIrF-is8g5C7q-2">
          <mxGeometry x="391.5" y="20" width="26.32" height="25" as="geometry" />
        </mxCell>
        <mxCell id="opJTwa3cTm8ZETA3z5tz-38" value="2" style="rounded=1;whiteSpace=wrap;html=1;fillColor=#007CBD;strokeColor=none;fontColor=#FFFFFF;fontStyle=1;fontSize=22;labelBackgroundColor=none;" vertex="1" parent="UEzPUAAOIrF-is8g5C7q-2">
          <mxGeometry x="391.5" y="220" width="26.32" height="25" as="geometry" />
        </mxCell>
        <mxCell id="-QjtrjUzRDEMRZ5MF8oH-47" value="Raku-Share System" style="text;html=1;resizable=0;points=[];autosize=1;align=left;verticalAlign=top;spacingTop=-4;fontSize=30;fontStyle=1" parent="1" vertex="1">
          <mxGeometry x="12" y="65.5" width="310" height="40" as="geometry" />
        </mxCell>
        <mxCell id="-QjtrjUzRDEMRZ5MF8oH-48" value="&lt;p&gt;アカウント登録不要でマルチプラットフォームでファイルを受け渡しできるアプリケーション。&lt;/p&gt;" style="text;html=1;resizable=0;points=[];autosize=1;align=left;verticalAlign=top;spacingTop=-4;fontSize=16" parent="1" vertex="1">
          <mxGeometry x="12" y="90" width="710" height="60" as="geometry" />
        </mxCell>
        <mxCell id="SCVMTBWpLvtzJIhz15lM-1" value="" style="line;strokeWidth=2;html=1;fontSize=14;" parent="1" vertex="1">
          <mxGeometry x="12" y="130" width="1060" height="10" as="geometry" />
        </mxCell>
        <mxCell id="7OVz4w7n9kzEPWy-4BBC-3" value="" style="rounded=0;whiteSpace=wrap;html=1;fillColor=#EAEDED;fontSize=22;fontColor=#FFFFFF;strokeColor=none;labelBackgroundColor=none;" parent="1" vertex="1">
          <mxGeometry x="1000" y="175" width="539" height="398" as="geometry" />
        </mxCell>
        <mxCell id="7OVz4w7n9kzEPWy-4BBC-4" value="1" style="rounded=1;whiteSpace=wrap;html=1;fillColor=#007CBD;strokeColor=none;fontColor=#FFFFFF;fontStyle=1;fontSize=22;labelBackgroundColor=none;" parent="1" vertex="1">
          <mxGeometry x="1018" y="187" width="40" height="38" as="geometry" />
        </mxCell>
        <mxCell id="7OVz4w7n9kzEPWy-4BBC-5" value="2" style="rounded=1;whiteSpace=wrap;html=1;fillColor=#007CBD;strokeColor=none;fontColor=#FFFFFF;fontStyle=1;fontSize=22;labelBackgroundColor=none;" parent="1" vertex="1">
          <mxGeometry x="1019" y="273" width="40" height="38" as="geometry" />
        </mxCell>
        <mxCell id="7OVz4w7n9kzEPWy-4BBC-6" value="3" style="rounded=1;whiteSpace=wrap;html=1;fillColor=#007CBD;strokeColor=none;fontColor=#FFFFFF;fontStyle=1;fontSize=22;labelBackgroundColor=none;" parent="1" vertex="1">
          <mxGeometry x="1016.5" y="429" width="40" height="38" as="geometry" />
        </mxCell>
        <mxCell id="7OVz4w7n9kzEPWy-4BBC-13" value="ユーザが共有したいファイルをS3バケット内に保存" style="text;html=1;align=left;verticalAlign=top;spacingTop=-4;fontSize=14;labelBackgroundColor=none;whiteSpace=wrap;" parent="1" vertex="1">
          <mxGeometry x="1069.5" y="186.5" width="449" height="76.5" as="geometry" />
        </mxCell>
        <mxCell id="7OVz4w7n9kzEPWy-4BBC-14" value="ユーザ情報、フォルダ情報を格納しておくDB" style="text;html=1;align=left;verticalAlign=top;spacingTop=-4;fontSize=14;labelBackgroundColor=none;whiteSpace=wrap;" parent="1" vertex="1">
          <mxGeometry x="1068.5" y="273" width="450" height="70" as="geometry" />
        </mxCell>
        <mxCell id="7OVz4w7n9kzEPWy-4BBC-15" value="&lt;span&gt;Lorem ipsum dolor sit amet, consectetur adipiscing elit, sed do eiusmod tempor incididunt ut labore et dolore magna aliqua. Ut enim ad minim veniam, quis nostrud exercitation ullamco laboris nisi ut aliquip ex ea commodo consequat. Duis aute irure dolor in reprehenderit in voluptate velit esse cillum dolore eu fugiat nulla pariatur. Excepteur sint occaecat cupidatat non proident, sunt in culpa qui officia deserunt mollit anim id est laborum.&lt;/span&gt;&lt;br&gt;" style="text;html=1;align=left;verticalAlign=top;spacingTop=-4;fontSize=14;labelBackgroundColor=none;whiteSpace=wrap;" parent="1" vertex="1">
          <mxGeometry x="1068.5" y="427.5" width="450" height="117" as="geometry" />
        </mxCell>
        <mxCell id="opJTwa3cTm8ZETA3z5tz-4" value="&lt;div&gt;SmartPhone&lt;/div&gt;&lt;div&gt;Client&lt;/div&gt;&lt;div&gt;&lt;br&gt;&lt;/div&gt;" style="sketch=0;outlineConnect=0;fontColor=#232F3E;gradientColor=none;fillColor=#232F3D;strokeColor=none;dashed=0;verticalLabelPosition=bottom;verticalAlign=top;align=center;html=1;fontSize=12;fontStyle=0;aspect=fixed;pointerEvents=1;shape=mxgraph.aws4.mobile_client;" vertex="1" parent="1">
          <mxGeometry x="99" y="212" width="41" height="78" as="geometry" />
        </mxCell>
        <mxCell id="opJTwa3cTm8ZETA3z5tz-5" value="PC Client" style="sketch=0;outlineConnect=0;fontColor=#232F3E;gradientColor=none;strokeColor=#232F3E;fillColor=#ffffff;dashed=0;verticalLabelPosition=bottom;verticalAlign=top;align=center;html=1;fontSize=12;fontStyle=0;aspect=fixed;shape=mxgraph.aws4.resourceIcon;resIcon=mxgraph.aws4.client;" vertex="1" parent="1">
          <mxGeometry x="90" y="414" width="60" height="60" as="geometry" />
        </mxCell>
        <mxCell id="opJTwa3cTm8ZETA3z5tz-7" value="DDNS (noip)" style="shape=image;verticalLabelPosition=bottom;labelBackgroundColor=default;verticalAlign=top;aspect=fixed;imageAspect=0;image=data:image/png,iVBORw0KGgoAAAANSUhEUgAAARwAAACxCAMAAAAh3/JWAAAAwFBMVEX////c3NyPvgDq6urv7+/8/Pz09PT5+fnx8fHs7OyJuwDn5+f39/fZ2dmhzwKLvADO4qbh4eGWwh3e68GMuQDw7fXt6++GsQCny06Xwih1owDm6N+azAD6/PLU4Lnh5dW+1I/E15yhyEPM26zs9NrC0KWwzWylyFS10HrW4L/K2qiry2KlyVPb4sq51nvH3Zjh77y622Gq0y+x10TO5ZOv0GLd7bPG4X+pwnO+3WuKrijb5MWfv1HA2ojp8tTH3ZRdkIkUAAAJT0lEQVR4nO2ca1fbuBZAHcsvyQ6qQ6whDSEQGCBQpp0H87jcTv//vxpJtmTZlpKsVRSzytkf2sSxHXsjHR09nCAAAAAAAAAAAAAAAAAAAAAAAAAAAAAAAAAAAAAAAAAAAAAAAAAAAAAAXpE4TbIsinAUZUkRj301b4i4iFCODHKEs3Tsq3oTJFj4wIxVDYwxqejd+4kzoYFVbH19eXu3WcwWm+f7q+2yEZSMfX0jItWwavnwGBJCKQ05/D9KyOJ+yyr8nvUINbi6+ESJ1NKBkvB+LfTgd1m5UlmhXmxmlJ+7p4pH52jsKz0+MthkQXBLHG6knkcZet5b4RHxBMt8xu0mpOFaNmX5u4o8Ma6LjeAXV7XisXnJmswnG/d6j0ls1pXPrnpluEHIf+D58utvv//h/Vv2EusqJXCVHDo33Pi38+v5ycnJ+cmN56/ZC2+k1iv9buaKNx03vmvWH8KNwOu37AcjvAyf1buv9lrVKzfe0+VGzcn5F5/fspeI3+eCkk+yAK8cLbnFjdcWfaUKzvmoYSfhleqMihxm8fy8cWSAok7hLsKOx8vSJedPj1+yDx6Mq3vStEZ0RyzGfUQU93ddf6miM+ZYEkZsuyMndpUbDuN6Cn8X9ru0c37q7xv2UvC/f6jLjb3siHITDagu/q68Vqxvv52c/DNqSy4qlfSxOGvY0HDRUDfqZL7MLG62H396Yj90ppwgvJaVinxQm05JqF5+4B+R8HOUDRFu5hu/RWdseMH5RJ1yTgkln4PE4qYQbkJy8SMXnQLhpzoaW+XckNlNkFgoLoQbXhe7RSetP23SnzRDOSeyZ0P801KQ48TaHqXNnyEN0kLSnCZB5WQyEYd9783vA6PqkbrlrMJVbHXD/ifdhGTLzAYrmkpK8Torp9OJgP83bPEj9anYYVJabjSrzzXFQV6/mPCNcT4xDsu9DivxHGfZtE5WOcEqLmxEZXUnCxx9rMxcJ6qvnMtJ2puQ99GtfHhqfip3GOjJGrVRkDc76fO3h+Uek6AEsaudcqxu0qjkVWVTj74vEWovUF18gHp3MZkatS8u+5/K++xd20DOlBeh4XH+KhevVZtdcuLUhnATB6s6jj8wo/+p5Fjuvr35dHiHcodyjxzbWeXnfohztFTJsU2O1U2cSTdyP15y7ipjYKdf7Dt3ke10M5G1caec3ed9bQrErnfIidPYgnIT1BWLMqO9irqBhrdFZuip9zF34G2ZGZg7NcsppwnP7Xs/YTlT2bFVjs1MHLxoN3XRIU+4jYqGnGlet2JFGyikRB2NpqqtydpjzABil8NbPnHeuMCt9l59fCV4yFmELjl2N9uP/4+1CxmRH4zGvJVjFPZMbxRn1W4MEbm5R++wrpyp0TRifSovFUv3OS1yYmsjKfLiz/rdVzEKdG9E5Mh269qO2IjUDp3ufG45zCane1Sivs1L0UFoTRxy7G5EXkzJytgzpGdV24PQcro9rrLdqm6zlxaqzTzqiKQ6L2ObnH4RUV/nI+rEiL045Nhzq7rP0O65InUPQt+pltM9Tv2JyyC179AWgiYo8du1yBmUEPWBh+Y8RezCVXJsNP0p+klvkUeyoZxeQqcDja5h/YxP3SaXUjjlDGOL83TfD5fzQG1yFtbdGzccvUmEc4oHcgaJmfoLB9h1myoLToJ44pQzKM+pLpKvjkvOfGXbu3VD9baFiMhoKKef06ugox0MRlcNa045/boYaOvHk/Oyx02/5Pywcq6HMWdXLK4LzpneOnNUK6cc5WDQXTSqlTvmDC4t9lqttgM59tzPLDdEJzoxsQdktxwVsQcDPKUuUolbjmtYw0dAjvUwYCtnv5uwzXP+bZpyHX/3yikcTblu4uNaxYFNuTqvj+mzdqhLyTnEzTd9vBh/p8/DJNAtRzfZveYqb2+/fmGV0z+vTr19zJ5hxLrdB+sYRc9Nm+XIbjm9HHYfdsjRN9qJHyoHNHMAa9+qkwrr4maJ1N9PpKYeGjn28Zttx81ze7hMkMUEhL7k/XJ0vTLtJLpoGMfYe+Vm50tv9DI9lCB2achxjftdzUmzIJmE5noQuciJLNFgyGKHHP2yzflj3Sk3+9yuIQs1Fp+044LDVuw1SI3OFflgHy/GZRQHXx4XIQ03t515a1lwwpk5wn6AnLi9p0mOowiZg5/mMa7BrulUTOgYo11TT6sZEGK65FwVtjkY3I5t9ZE1UoxYtMH1ADnG8I68U/NNJ6IcOkzqaaxLBp3b2g5dLG0TVDvc1MsqxcRVe0+HyHEONPfanIPlvKYQk0L1y+kis7lBbjendX2cYXPK8yA53bLT0huUGcqxzcz05yxeE16vZBdgYVsrkKHyxT7oVac4Yd2QGynLYXJsE1eDaSvLvFU6tOor3tRXINsrusB2N9n8X/txvzRxnLdV5sLAZjp4IGfSTujWJGVn/sA2sWtMBzd7FaJh6x7mddWXWIBM6SyyrL/Jct5OzYx8uOV01riht53ZYGPyv4vSbX4zP790Nintq1Lbc5ldeX5YbXpS+n/EgCfJl3M8VBNFuZjznYnlOd0hjNWHRdshW3pd+NYwGOeIXZX9lUlz3sGKhuv9ajdyTIKQzdfTm5Xg5vTbGWkXENL7yueSSYVzEMg7EUJDNRjndTtVr3sTT+oR2vwbGhzn4aLx5MjHHlxuXCv9m0rFu1XHeC5tPDlijXYfptzslCOisd/momFEOfIptA7Vzzr32yGHbtiRnoYdU048cPOxUnnxrpKzxEepVOPKkeu0O25+0qPsbjl0zY61zHZUOZ2wI9zM9SdOOfSJmevdvDKunPrB4NZNOzHlei5NujnWI8Ijy5GPXGk3dJ8cOlse0Y1aajucmTkWddlhP9fjxXqzVQ65Q8d0o1bQR+M9W5TwfgRTY+l6q0UOJVfVcTLjN4Ros9jFnOyWQ8mdqFJH6FG9LcRz9wxfiieu9LZZX81mK37M4sd9GMSNaNIZujTWmMy6as62FXuvP4MSxJGIPOxC372Ww7vki8u1UPN+f0AnSLHQg1BUPxcUNiMV4e3VmjHj9y7eKbHKCHMcZddXVw/X2zWqKmnG/zNOb59C5YS8ignqX4WB33tTpElkDmXgDH4qsIdYWVCk6ZGGswEAAAAAAAAAAAAAAAAAAAAAAAAAAAAAAAAAAAAAAAAAAAAAAAAAAAAAAAAAAIDD+A+Z2KN444ANdQAAAABJRU5ErkJggg==;" vertex="1" parent="1">
          <mxGeometry x="219" y="321" width="115.53" height="72" as="geometry" />
        </mxCell>
        <mxCell id="opJTwa3cTm8ZETA3z5tz-14" value="" style="endArrow=classic;startArrow=classic;html=1;rounded=0;" edge="1" parent="1">
          <mxGeometry width="50" height="50" relative="1" as="geometry">
            <mxPoint x="159" y="259" as="sourcePoint" />
            <mxPoint x="209" y="349" as="targetPoint" />
          </mxGeometry>
        </mxCell>
        <mxCell id="opJTwa3cTm8ZETA3z5tz-15" value="" style="endArrow=classic;startArrow=classic;html=1;rounded=0;" edge="1" parent="1">
          <mxGeometry width="50" height="50" relative="1" as="geometry">
            <mxPoint x="159" y="459" as="sourcePoint" />
            <mxPoint x="209" y="369" as="targetPoint" />
          </mxGeometry>
        </mxCell>
        <mxCell id="opJTwa3cTm8ZETA3z5tz-26" value="" style="edgeStyle=orthogonalEdgeStyle;html=1;endArrow=block;elbow=vertical;startArrow=block;startFill=1;endFill=1;strokeColor=#545B64;rounded=0;entryX=0;entryY=0.5;entryDx=0;entryDy=0;entryPerimeter=0;" edge="1" parent="1" source="opJTwa3cTm8ZETA3z5tz-7" target="opJTwa3cTm8ZETA3z5tz-27">
          <mxGeometry width="100" relative="1" as="geometry">
            <mxPoint x="290" y="420" as="sourcePoint" />
            <mxPoint x="390" y="420" as="targetPoint" />
          </mxGeometry>
        </mxCell>
      </root>
    </mxGraphModel>
  </diagram>
</mxfile>
